<svg width="38" height="38" viewBox="0 0 38 38" fill="none" xmlns="http://www.w3.org/2000/svg">
  <circle cx="19" cy="19" r="19" fill="#F4F4EF"/>
  <path d="M15.053 14.133L15.082 14.16L18.763 17.841L22.308 14.296C22.407 14.196 22.541 14.139 22.682 14.136C22.822 14.133 22.959 14.185 23.062 14.28C23.165 14.376 23.227 14.508 23.234 14.648C23.242 14.789 23.194 14.927 23.102 15.033L23.075 15.063L19.529 18.607L23.074 22.152C23.174 22.251 23.232 22.385 23.235 22.526C23.238 22.667 23.186 22.803 23.091 22.906C22.995 23.009 22.863 23.071 22.723 23.078C22.582 23.086 22.444 23.039 22.338 22.946L22.308 22.919L18.763 19.373L15.082 23.055C14.983 23.154 14.85 23.211 14.71 23.213C14.569 23.216 14.434 23.164 14.331 23.069C14.228 22.973 14.166 22.842 14.159 22.702C14.151 22.562 14.197 22.424 14.289 22.318L14.316 22.288L17.997 18.607L14.317 14.927C14.218 14.827 14.162 14.694 14.159 14.554C14.157 14.414 14.209 14.279 14.304 14.177C14.399 14.074 14.53 14.012 14.67 14.004C14.809 13.996 14.946 14.042 15.053 14.133Z" fill="#152119"/>
</svg>
