<svg width="36" height="36" viewBox="0 0 36 36" fill="none" xmlns="http://www.w3.org/2000/svg">
  <path d="M34.925 15.787C34.946 15.787 34.967 15.784 34.988 15.784C34.136 7.138 27.012 0.355 18.229 0C18.727 8.799 26.001 15.787 34.925 15.787ZM34.928 18.033C24.777 18.033 16.51 10.061 15.99 0.039C7.327 0.785 0.479 7.818 0 16.556C10.233 16.649 18.516 24.834 18.79 35.023C27.725 34.379 34.796 27.064 35.052 18.027C35.009 18.027 34.969 18.033 34.928 18.033ZM0.016 18.805C0.65 27.582 7.722 34.553 16.54 35.039C16.275 26.09 9.005 18.908 0.016 18.805Z" fill="#E5FE72"/>
</svg>
