<svg width="32" height="32" viewBox="0 0 32 32" fill="none" xmlns="http://www.w3.org/2000/svg">
  <rect width="32" height="32" rx="10" fill="white"/>
  <path d="M18.0252 16.937C17.04 15.835 15.719 15.087 14.2664 14.811C12.8138 14.534 11.3106 14.744 9.9891 15.407C9.3844 16.613 9.156 17.972 9.3334 19.309C9.5108 20.646 10.0859 21.899 10.9841 22.905L15.6722 28.154C15.683 28.166 15.6947 28.178 15.7073 28.189C15.7597 28.236 15.8225 28.269 15.8904 28.287L18.0252 25.897C19.1258 24.664 19.734 23.07 19.734 21.417C19.734 19.765 19.1258 18.17 18.0252 16.937Z" fill="#1B4D2E"/>
  <path d="M16 13.139C17.02 13.139 18.0184 13.434 18.8746 13.988C19.7309 14.543 20.4083 15.333 20.8253 16.264C21.2423 17.195 21.381 18.227 21.2246 19.235C21.0683 20.243 20.6236 21.184 19.9442 21.945L16 26.36L12.0575 21.945C11.3782 21.184 10.9335 20.243 10.7771 19.235C10.6207 18.228 10.7593 17.196 11.176 16.265C11.5928 15.334 12.27 14.544 13.1259 13.989C13.9819 13.434 14.98 13.139 16 13.139ZM16 11.699C14.7023 11.7 13.4325 12.075 12.3436 12.781C11.2548 13.487 10.3934 14.493 9.8634 15.678C9.3334 16.862 9.1574 18.175 9.3566 19.457C9.5558 20.739 10.1217 21.936 10.9861 22.904L15.6719 28.154C15.6827 28.166 15.6944 28.178 15.707 28.189C15.7942 28.267 15.9087 28.306 16.0252 28.3C16.1417 28.293 16.2509 28.241 16.3289 28.154L21.0166 22.905C21.881 21.937 22.4469 20.739 22.646 19.457C22.8451 18.174 22.6688 16.861 22.1385 15.677C21.6082 14.492 20.7464 13.486 19.6572 12.781C18.568 12.075 17.2978 11.699 16 11.699Z" fill="#333333"/>
  <path d="M16.0155 16.461C16.2509 16.46 16.481 16.53 16.6767 16.661C16.8725 16.792 17.025 16.977 17.1151 17.195C17.2052 17.412 17.2288 17.651 17.183 17.882C17.1371 18.113 17.0237 18.325 16.8573 18.492C16.6909 18.658 16.4788 18.771 16.248 18.817C16.0172 18.863 15.7779 18.84 15.5605 18.749C15.343 18.659 15.1572 18.507 15.0265 18.311C14.8958 18.115 14.8261 17.885 14.8262 17.65C14.8267 17.335 14.9521 17.032 15.1751 16.809C15.398 16.586 15.7003 16.461 16.0155 16.461Z" fill="#E5FE72"/>
</svg>
